<svg xmlns="http://www.w3.org/2000/svg" viewBox="0 0 512 512"><g id="Vital_Sign"><path style="fill:#ffedca" d="M461.8066,238.3115H411.1138c13.9631-34.716,7.7085-76.6282-18.7408-104.8442-16.3847-17.48-38.1962-27.0928-61.4531-27.0928-.1025,0-.209,0-.3115.0005-23.8486.0884-46.2451,10.1665-63.0664,28.3789L256,147.251l-12.2637-13.2783c-16.6074-17.9815-38.7295-27.8843-62.29-27.8843s-45.6826,9.9028-62.29,27.8843C91.34,164.0917,86.3257,209.6744,104.08,245.39H50.1934v13h61.71a92.8434,92.8434,0,0,0,7.2526,8.9488L240.959,399.2173a20.3144,20.3144,0,0,0,15.04,6.6943H256a20.3173,20.3173,0,0,0,15.04-6.6938h.001L392.8438,267.3384a93.7945,93.7945,0,0,0,11.8771-16.0269h57.0857Zm-333.1-95.5185c14.1182-15.2862,32.8477-23.7046,52.7393-23.7046s38.6211,8.4184,52.7392,23.7046l17.0391,18.4482a6.5008,6.5008,0,0,0,9.5508,0l16.3174-17.667c14.3427-15.53,33.3662-24.1245,53.5634-24.1992,19.6963-.08,38.2715,8.0889,52.2325,22.9829,24.2282,25.8469,28.943,64.9461,14.0835,95.9536H341.2861a13.0244,13.0244,0,0,0-11.73,7.2681,6.4959,6.4959,0,0,0-.3828.9507l-2.4961,7.97-10.7754-42.0874a13.1015,13.1015,0,0,0-25.2217-.769l-22.1543,70.7919-22.6309-97.22a13.1013,13.1013,0,0,0-24.9463-1.8384L196.4717,245.39H118.8625C99.7275,213.6709,103.0049,170.6224,128.707,142.793ZM383.293,258.5181,261.49,390.3975h.001A7.4639,7.4639,0,0,1,256,392.9116h-.001a7.4582,7.4582,0,0,1-5.4892-2.5141L128.707,258.5181c-.0388-.042-.0739-.0865-.1128-.1285h72.3a6.4992,6.4992,0,0,0,6.0459-4.1137l26.1-66.126a.1149.1149,0,0,1,.1006-.064.1025.1025,0,0,1,.0918.0782l28.04,120.4541a6.5009,6.5009,0,0,0,6.0888,5.0219c.0821.003.1631.0044.2442.0044a6.5,6.5,0,0,0,6.2011-4.5586l29.2784-93.5566a.1434.1434,0,0,1,.1015-.0732c.0459.0014.084.0327.1084.1293l16.4561,64.2784a6.5,6.5,0,0,0,6.125,4.8852c.0576.0015.1152.0025.1738.0025a6.5013,6.5013,0,0,0,6.2012-4.5572l9.0469-28.8828h47.8942A80.999,80.999,0,0,1,383.293,258.5181Z"/></g></svg>