<?xml version="1.0" encoding="UTF-8" standalone="no"?>
<svg
   xmlns:dc="http://purl.org/dc/elements/1.1/"
   xmlns:cc="http://creativecommons.org/ns#"
   xmlns:rdf="http://www.w3.org/1999/02/22-rdf-syntax-ns#"
   xmlns:svg="http://www.w3.org/2000/svg"
   xmlns="http://www.w3.org/2000/svg"
   xmlns:sodipodi="http://sodipodi.sourceforge.net/DTD/sodipodi-0.dtd"
   xmlns:inkscape="http://www.inkscape.org/namespaces/inkscape"
   width="120mm"
   height="120mm"
   viewBox="0 0 120 120"
   version="1.1"
   id="svg8"
   inkscape:version="1.0.1 (3bc2e813f5, 2020-09-07)"
   sodipodi:docname="cat.svg">
  <defs
     id="defs2">
    <marker
       style="overflow:visible"
       id="marker3001"
       refX="0"
       refY="0"
       orient="auto"
       inkscape:stockid="Arrow2Send"
       inkscape:isstock="true">
      <path
         transform="matrix(-0.3,0,0,-0.3,0.69,0)"
         d="M 8.7185878,4.0337352 -2.2072895,0.01601326 8.7185884,-4.0017078 c -1.7454984,2.3720609 -1.7354408,5.6174519 -6e-7,8.035443 z"
         style="fill:#ffffff;fill-opacity:0.997238;fill-rule:evenodd;stroke:#ffffff;stroke-width:0.625;stroke-linejoin:round;stroke-opacity:1"
         id="path2999" />
    </marker>
    <marker
       style="overflow:visible"
       id="Arrow2Send"
       refX="0"
       refY="0"
       orient="auto"
       inkscape:stockid="Arrow2Send"
       inkscape:isstock="true">
      <path
         transform="matrix(-0.3,0,0,-0.3,0.69,0)"
         d="M 8.7185878,4.0337352 -2.2072895,0.01601326 8.7185884,-4.0017078 c -1.7454984,2.3720609 -1.7354408,5.6174519 -6e-7,8.035443 z"
         style="fill:#000000;fill-opacity:0.997238;fill-rule:evenodd;stroke:#000000;stroke-width:0.625;stroke-linejoin:round;stroke-opacity:1"
         id="path898" />
    </marker>
    <marker
       style="overflow:visible"
       id="marker2929"
       refX="0"
       refY="0"
       orient="auto"
       inkscape:stockid="Arrow1Send"
       inkscape:isstock="true">
      <path
         transform="matrix(-0.2,0,0,-0.2,-1.2,0)"
         style="fill:#000000;fill-opacity:0.997238;fill-rule:evenodd;stroke:#000000;stroke-width:1pt;stroke-opacity:1"
         d="M 0,0 5,-5 -12.5,0 5,5 Z"
         id="path2927" />
    </marker>
    <marker
       style="overflow:visible"
       id="Arrow2Mend"
       refX="0"
       refY="0"
       orient="auto"
       inkscape:stockid="Arrow2Mend"
       inkscape:isstock="true">
      <path
         transform="scale(-0.6)"
         d="M 8.7185878,4.0337352 -2.2072895,0.01601326 8.7185884,-4.0017078 c -1.7454984,2.3720609 -1.7354408,5.6174519 -6e-7,8.035443 z"
         style="fill:#000000;fill-opacity:0.997238;fill-rule:evenodd;stroke:#000000;stroke-width:0.625;stroke-linejoin:round;stroke-opacity:1"
         id="path892" />
    </marker>
    <marker
       style="overflow:visible"
       id="Arrow1Send"
       refX="0"
       refY="0"
       orient="auto"
       inkscape:stockid="Arrow1Send"
       inkscape:isstock="true">
      <path
         transform="matrix(-0.2,0,0,-0.2,-1.2,0)"
         style="fill:#000000;fill-opacity:0.997238;fill-rule:evenodd;stroke:#000000;stroke-width:1pt;stroke-opacity:1"
         d="M 0,0 5,-5 -12.5,0 5,5 Z"
         id="path880" />
    </marker>
    <marker
       style="overflow:visible"
       id="Arrow1Lend"
       refX="0"
       refY="0"
       orient="auto"
       inkscape:stockid="Arrow1Lend"
       inkscape:isstock="true">
      <path
         transform="matrix(-0.8,0,0,-0.8,-10,0)"
         style="fill:#000000;fill-opacity:1;fill-rule:evenodd;stroke:#000000;stroke-width:1pt;stroke-opacity:1"
         d="M 0,0 5,-5 -12.5,0 5,5 Z"
         id="path868" />
    </marker>
  </defs>
  <sodipodi:namedview
     id="base"
     pagecolor="#ffffff"
     bordercolor="#666666"
     borderopacity="1.0"
     inkscape:pageopacity="0.0"
     inkscape:pageshadow="2"
     inkscape:zoom="0.70910507"
     inkscape:cx="384.41523"
     inkscape:cy="567.71592"
     inkscape:document-units="mm"
     inkscape:current-layer="layer1"
     inkscape:document-rotation="0"
     showgrid="false"
     inkscape:window-width="1920"
     inkscape:window-height="1001"
     inkscape:window-x="-9"
     inkscape:window-y="-9"
     inkscape:window-maximized="1" />
  <metadata
     id="metadata5">
    <rdf:RDF>
      <cc:Work
         rdf:about="">
        <dc:format>image/svg+xml</dc:format>
        <dc:type
           rdf:resource="http://purl.org/dc/dcmitype/StillImage" />
        <dc:title></dc:title>
      </cc:Work>
    </rdf:RDF>
  </metadata>
  <g
     inkscape:label="Слой 1"
     inkscape:groupmode="layer"
     id="layer1">
    <g
       id="g2662"
       transform="translate(-42.909132,-70.147104)">
      <ellipse
         style="fill:none;stroke:#ffffff;stroke-width:10;stroke-miterlimit:4;stroke-dasharray:none;stroke-opacity:1"
         id="path34"
         cx="103.56547"
         cy="134.9375"
         rx="40.065475"
         ry="38.931545" />
      <path
         sodipodi:type="star"
         style="fill:#ffffff;stroke-width:0.264583"
         id="path56"
         sodipodi:sides="3"
         sodipodi:cx="127.75596"
         sodipodi:cy="100.54166"
         sodipodi:r1="15.510845"
         sodipodi:r2="7.7554226"
         sodipodi:arg1="0.81986726"
         sodipodi:arg2="1.8670648"
         inkscape:flatsided="false"
         inkscape:rounded="0.01"
         inkscape:randomized="0"
         d="m 138.33929,111.88094 c -0.0982,0.0917 -12.71908,-3.88253 -12.84755,-3.92174 -0.12848,-0.0392 -12.81728,-3.79088 -12.84756,-3.92175 -0.0303,-0.13087 9.72191,-9.073782 9.82011,-9.165436 0.0982,-0.09165 9.69164,-9.204653 9.82011,-9.165435 0.12848,0.03922 2.99717,12.956309 3.02745,13.087181 0.0303,0.130872 3.12564,12.99553 3.02744,13.08718 z"
         inkscape:transform-center-x="2.8622891"
         inkscape:transform-center-y="-1.8442617"
         transform="matrix(1.2647565,0,0,1.0555662,-35.483237,-8.85704)" />
      <path
         sodipodi:type="star"
         style="fill:#ffffff;stroke-width:0.264583"
         id="path56-9"
         sodipodi:sides="3"
         sodipodi:cx="75.590492"
         sodipodi:cy="98.509087"
         sodipodi:r1="15.510846"
         sodipodi:r2="7.7554226"
         sodipodi:arg1="0.81986726"
         sodipodi:arg2="1.8670648"
         inkscape:flatsided="false"
         inkscape:rounded="0.01"
         inkscape:randomized="0"
         d="m 86.173826,109.84837 c -0.0982,0.0917 -12.719079,-3.88253 -12.847555,-3.92174 -0.128475,-0.0392 -12.817281,-3.79088 -12.847555,-3.92175 -0.03027,-0.13087 9.721909,-9.073781 9.82011,-9.165436 0.0982,-0.09165 9.691633,-9.204653 9.820109,-9.165436 0.128476,0.03922 2.99717,12.95631 3.027445,13.087182 0.03027,0.130872 3.125647,12.99553 3.027446,13.08718 z"
         inkscape:transform-center-x="-3.1081983"
         inkscape:transform-center-y="-1.6216171"
         transform="matrix(1.0615192,-0.5782584,0.74328378,0.82583858,-72.895912,59.534039)" />
      <rect
         style="fill:#ffffff;stroke-width:1.06795"
         id="rect75-2"
         width="43.824978"
         height="6"
         x="109.94105"
         y="137.39804" />
      <rect
         style="fill:#ffffff;stroke-width:1.06795"
         id="rect75-2-0"
         width="43.824978"
         height="6"
         x="53.552132"
         y="137.32658" />
      <rect
         style="fill:#ffffff;stroke-width:1.06795"
         id="rect75-2-0-3"
         width="43.824978"
         height="6"
         x="94.648026"
         y="95.739845"
         transform="rotate(20)" />
      <rect
         style="fill:#ffffff;stroke-width:1.06795"
         id="rect75-2-0-3-3"
         width="43.824978"
         height="6"
         x="152.3558"
         y="91.148026"
         transform="rotate(20)" />
      <rect
         style="fill:#ffffff;stroke-width:1.06795"
         id="rect75-2-0-3-4"
         width="43.824978"
         height="6"
         x="56.317894"
         y="166.71397"
         transform="rotate(-20)" />
      <rect
         style="fill:#ffffff;stroke-width:1.06795"
         id="rect75-2-0-3-4-2"
         width="43.824978"
         height="6"
         x="-1.3410051"
         y="161.98787"
         transform="rotate(-20)" />
    </g>
  </g>
</svg>
