<?xml version="1.0" encoding="UTF-8" standalone="no"?>
<svg
   xmlns:dc="http://purl.org/dc/elements/1.1/"
   xmlns:cc="http://creativecommons.org/ns#"
   xmlns:rdf="http://www.w3.org/1999/02/22-rdf-syntax-ns#"
   xmlns:svg="http://www.w3.org/2000/svg"
   xmlns="http://www.w3.org/2000/svg"
   xmlns:sodipodi="http://sodipodi.sourceforge.net/DTD/sodipodi-0.dtd"
   xmlns:inkscape="http://www.inkscape.org/namespaces/inkscape"
   width="45mm"
   height="45mm"
   viewBox="0 0 45 45"
   version="1.1"
   id="svg1452"
   inkscape:version="1.0.1 (3bc2e813f5, 2020-09-07)"
   sodipodi:docname="distanceT.svg">
  <defs
     id="defs1446">
    <marker
       style="overflow:visible"
       id="Arrow2Send"
       refX="0"
       refY="0"
       orient="auto"
       inkscape:stockid="Arrow2Send"
       inkscape:isstock="true">
      <path
         transform="matrix(-0.3,0,0,-0.3,0.69,0)"
         d="M 8.7185878,4.0337352 -2.2072895,0.01601326 8.7185884,-4.0017078 c -1.7454984,2.3720609 -1.7354408,5.6174519 -6e-7,8.035443 z"
         style="fill:#000000;fill-opacity:1;fill-rule:evenodd;stroke:#000000;stroke-width:0.625;stroke-linejoin:round;stroke-opacity:1"
         id="path962" />
    </marker>
    <marker
       style="overflow:visible"
       id="Arrow2Lend"
       refX="0"
       refY="0"
       orient="auto"
       inkscape:stockid="Arrow2Lend"
       inkscape:isstock="true">
      <path
         transform="matrix(-1.1,0,0,-1.1,-1.1,0)"
         d="M 8.7185878,4.0337352 -2.2072895,0.01601326 8.7185884,-4.0017078 c -1.7454984,2.3720609 -1.7354408,5.6174519 -6e-7,8.035443 z"
         style="fill:#000000;fill-opacity:1;fill-rule:evenodd;stroke:#000000;stroke-width:0.625;stroke-linejoin:round;stroke-opacity:1"
         id="path950" />
    </marker>
    <marker
       style="overflow:visible"
       id="Arrow1Mend"
       refX="0"
       refY="0"
       orient="auto"
       inkscape:stockid="Arrow1Mend"
       inkscape:isstock="true">
      <path
         transform="matrix(-0.4,0,0,-0.4,-4,0)"
         style="fill:#000000;fill-opacity:1;fill-rule:evenodd;stroke:#000000;stroke-width:1pt;stroke-opacity:1"
         d="M 0,0 5,-5 -12.5,0 5,5 Z"
         id="path938" />
    </marker>
    <marker
       style="overflow:visible"
       id="Arrow2Mstart"
       refX="0"
       refY="0"
       orient="auto"
       inkscape:stockid="Arrow2Mstart"
       inkscape:isstock="true">
      <path
         transform="scale(0.6)"
         d="M 8.7185878,4.0337352 -2.2072895,0.01601326 8.7185884,-4.0017078 c -1.7454984,2.3720609 -1.7354408,5.6174519 -6e-7,8.035443 z"
         style="fill:#000000;fill-opacity:1;fill-rule:evenodd;stroke:#000000;stroke-width:0.625;stroke-linejoin:round;stroke-opacity:1"
         id="path953" />
    </marker>
    <inkscape:path-effect
       effect="bspline"
       id="path-effect2029"
       is_visible="true"
       lpeversion="1"
       weight="33.333333"
       steps="2"
       helper_size="0"
       apply_no_weight="true"
       apply_with_weight="true"
       only_selected="false" />
    <clipPath
       clipPathUnits="userSpaceOnUse"
       id="clipPath2236">
      <rect
         style="fill:none;fill-opacity:1;stroke:none;stroke-width:0.499999;stroke-linecap:round;stroke-linejoin:miter;stroke-miterlimit:4;stroke-dasharray:none;stroke-opacity:1"
         id="rect2238"
         width="47.824696"
         height="48.278725"
         x="74.915268"
         y="87.628159" />
    </clipPath>
  </defs>
  <sodipodi:namedview
     id="base"
     pagecolor="#ffffff"
     bordercolor="#666666"
     borderopacity="1.0"
     inkscape:pageopacity="0.0"
     inkscape:pageshadow="2"
     inkscape:zoom="0.57848045"
     inkscape:cx="389.70384"
     inkscape:cy="468.4786"
     inkscape:document-units="mm"
     inkscape:current-layer="layer1"
     inkscape:document-rotation="0"
     showgrid="false"
     inkscape:window-width="1920"
     inkscape:window-height="1017"
     inkscape:window-x="-8"
     inkscape:window-y="-8"
     inkscape:window-maximized="1" />
  <metadata
     id="metadata1449">
    <rdf:RDF>
      <cc:Work
         rdf:about="">
        <dc:format>image/svg+xml</dc:format>
        <dc:type
           rdf:resource="http://purl.org/dc/dcmitype/StillImage" />
        <dc:title></dc:title>
      </cc:Work>
    </rdf:RDF>
  </metadata>
  <g
     inkscape:label="Layer 1"
     inkscape:groupmode="layer"
     id="layer1">
    <g
       id="g2196"
       clip-path="url(#clipPath2236)"
       transform="translate(-75.924489,-89.188407)">
      <circle
         style="fill:none;stroke:#000000;stroke-width:2;stroke-linecap:round;stroke-linejoin:round;stroke-miterlimit:9.8;stroke-dasharray:none;stroke-opacity:1"
         id="path2015"
         cx="98.745987"
         cy="111.6503"
         r="20" />
      <path
         style="fill:none;stroke:#000000;stroke-width:1.5;stroke-linecap:round;stroke-linejoin:round;stroke-miterlimit:4;stroke-dasharray:none;stroke-opacity:1"
         d="m 98.180769,112.71988 c 3.797801,-3.29408 7.595581,-6.58814 11.393331,-9.88218"
         id="path2027"
         inkscape:path-effect="#path-effect2029"
         inkscape:original-d="m 98.180769,112.71988 c 3.798041,-3.2938 7.595821,-6.58786 11.393331,-9.88218" />
      <path
         style="fill:none;stroke:#000000;stroke-width:1.5;stroke-linecap:round;stroke-linejoin:round;stroke-miterlimit:4;stroke-dasharray:none;stroke-opacity:1"
         d="m 91.110147,106.31861 c 2.357139,2.13402 4.714013,4.26778 7.070619,6.40127"
         id="path2031" />
      <path
         style="fill:#cccccc;fill-opacity:1;stroke:none;stroke-width:0.858012;stroke-linecap:round;stroke-linejoin:round;stroke-miterlimit:4;stroke-dasharray:none;stroke-opacity:1"
         d="m 96.41755,130.53104 c -8.366185,-1.05408 -15.018334,-7.39351 -16.465348,-15.69131 -0.292672,-1.6783 -0.28737,-4.6014 0.01148,-6.32465 0.825067,-4.75771 3.520546,-9.092424 7.47353,-12.018524 1.189032,-0.880148 4.252108,-2.51028 4.914802,-2.615597 0.262144,-0.04166 0.519504,0.793557 2.597269,8.429011 1.268463,4.6614 2.287653,8.49427 2.26487,8.51749 -0.02278,0.0232 -1.361816,-1.151 -2.975628,-2.6094 -1.90005,-1.71707 -3.050413,-2.65208 -3.263919,-2.65291 -0.674148,-0.003 -1.049782,0.84438 -0.616185,1.38942 0.346771,0.43589 7.098942,6.47364 7.455982,6.66709 0.350258,0.18977 11.575517,13.3365 11.575517,13.55694 0,0.29867 -3.10481,1.88626 -4.83055,2.47002 -2.44954,0.82859 -5.739186,1.18513 -8.141811,0.88242 z"
         id="path2039" />
      <path
         style="fill:none;fill-opacity:1;stroke:#000000;stroke-width:0.5;stroke-linecap:round;stroke-linejoin:miter;stroke-miterlimit:4;stroke-dasharray:none;stroke-opacity:1;marker-start:url(#Arrow2Mstart);marker-end:url(#Arrow1Mend)"
         id="path2043"
         sodipodi:type="arc"
         sodipodi:cx="97.238503"
         sodipodi:cy="112.07021"
         sodipodi:rx="14"
         sodipodi:ry="14"
         sodipodi:start="1.4730579"
         sodipodi:end="3.4540066"
         sodipodi:arc-type="arc"
         d="M 98.604663,126.0034 A 14,14 0 0 1 86.33543,120.85218 14,14 0 0 1 83.916181,107.76722"
         sodipodi:open="true" />
    </g>
  </g>
</svg>
